<?xml version="1.0" encoding="UTF-8"?>
<svg version="1.1" xmlns="http://www.w3.org/2000/svg" width="31" height="23">
<path d="M0 0 C0.33478782 3.16292792 0.28633868 4.59300176 -1.57299805 7.23583984 C-3.92979254 9.63180471 -6.2898101 12.01982889 -8.6875 14.375 C-9.50412109 15.21933594 -10.32074219 16.06367188 -11.16210938 16.93359375 C-11.95810547 17.72636719 -12.75410156 18.51914062 -13.57421875 19.3359375 C-14.30213623 20.06345215 -15.03005371 20.7909668 -15.7800293 21.54052734 C-18 23 -18 23 -20.63452148 22.83349609 C-23.56206353 21.80195223 -25.17252597 20.42791112 -27.375 18.25 C-28.08398438 17.57453125 -28.79296875 16.8990625 -29.5234375 16.203125 C-31 14 -31 14 -30.7265625 11.234375 C-30.48679687 10.49703125 -30.24703125 9.7596875 -30 9 C-25.62005327 9.50537847 -23.22829999 12.22719987 -20 15 C-19.57178955 14.54560547 -19.1435791 14.09121094 -18.70239258 13.62304688 C-16.75233701 11.56897079 -14.78290389 9.53455657 -12.8125 7.5 C-11.80219727 6.42685547 -11.80219727 6.42685547 -10.77148438 5.33203125 C-9.78051758 4.31689453 -9.78051758 4.31689453 -8.76953125 3.28125 C-8.16729736 2.65283203 -7.56506348 2.02441406 -6.94458008 1.37695312 C-4.4903637 -0.36087241 -2.94246185 -0.26648711 0 0 Z " fill="#525252" transform="translate(31,0)"/>
</svg>
