<?xml version="1.0" encoding="UTF-8"?>
<svg version="1.1" xmlns="http://www.w3.org/2000/svg" width="200" height="200">
<path d="M0 0 C1.61829257 1.35834636 3.22327152 2.73276132 4.8125 4.125 C5.48925781 4.70636719 6.16601562 5.28773437 6.86328125 5.88671875 C22.93311865 20.732801 30.43537085 41.37533537 32.09375 62.75 C32.70456369 85.14650182 24.51964892 106.33691605 9.8125 123.125 C8.94044922 124.14013672 8.94044922 124.14013672 8.05078125 125.17578125 C-6.795301 141.24561865 -27.43783537 148.74787085 -48.8125 150.40625 C-71.20900182 151.01706369 -92.39941605 142.83214892 -109.1875 128.125 C-110.20263672 127.25294922 -110.20263672 127.25294922 -111.23828125 126.36328125 C-127.30811865 111.517199 -134.81037085 90.87466463 -136.46875 69.5 C-137.07956369 47.10349818 -128.89464892 25.91308395 -114.1875 9.125 C-113.60613281 8.44824219 -113.02476563 7.77148438 -112.42578125 7.07421875 C-83.50554224 -24.22990113 -32.88593038 -25.61693662 0 0 Z M-104.3125 20.25 C-117.25815181 35.50175982 -122.78874595 54.24808099 -121.1875 74.125 C-118.71661296 92.1769101 -109.67723778 108.3914425 -95.7890625 120.1796875 C-80.18033885 131.85107546 -61.62955195 137.51241163 -42.11132812 134.84082031 C-23.82009243 131.56386022 -7.38577499 122.10100631 3.8125 107.125 C14.31908779 91.23041847 19.58324196 73.1006964 16.1640625 54.015625 C12.15330533 35.12640015 1.79705226 18.70800912 -14.4140625 7.9921875 C-44.37012072 -10.41155549 -80.19219641 -4.99217817 -104.3125 20.25 Z " fill="#5048E4" transform="translate(152.1875,33.875)"/>
<path d="M0 0 C3.15204302 2.83601926 4.2510038 5.120734 4.53344727 9.25195312 C4.56644841 10.92809657 4.57612752 12.6048099 4.56640625 14.28125 C4.57570412 15.6179071 4.57570412 15.6179071 4.58518982 16.98156738 C4.59227675 18.86091014 4.58913366 20.74031582 4.57641602 22.61962891 C4.56254307 25.4910857 4.59664388 28.35928664 4.63476562 31.23046875 C4.63571682 33.05989663 4.63385795 34.88932858 4.62890625 36.71875 C4.64216446 37.57408325 4.65542267 38.4294165 4.66908264 39.31066895 C4.60084305 43.69006584 4.39322759 45.48394254 1.65600586 49.07617188 C-1 51 -1 51 -4.125 51.0625 C-7.55778929 49.79386048 -8.28416688 49.2064651 -10 46 C-10.43390248 42.92603895 -10.39633832 39.88113221 -10.36328125 36.78125 C-10.36377975 35.88635864 -10.36427826 34.99146729 -10.36479187 34.06945801 C-10.36245434 32.17990902 -10.35274472 30.29035675 -10.33618164 28.40087891 C-10.31258538 25.51045861 -10.31562364 22.62096093 -10.32226562 19.73046875 C-10.31668869 17.89322367 -10.30957871 16.05598248 -10.30078125 14.21875 C-10.30169266 13.35511841 -10.30260406 12.49148682 -10.30354309 11.60168457 C-10.29401108 10.79404663 -10.28447906 9.98640869 -10.2746582 9.15429688 C-10.27005081 8.44688354 -10.26544342 7.73947021 -10.26069641 7.01062012 C-9.95283178 4.63621528 -9.25025146 3.03462268 -8 1 C-5.12529507 -0.43735246 -3.18105412 -0.38172649 0 0 Z " fill="#5048E4" transform="translate(103,58)"/>
<path d="M0 0 C2.55156846 2.83507606 2.62281006 5.12298329 2.6875 8.875 C1.09911066 12.44887602 -0.02884358 13.68589572 -3.3125 15.875 C-7.01735832 16.35824239 -8.83842056 16.13837747 -12.125 14.3125 C-14.99050813 11.11950523 -15.3125 9.13380812 -15.3125 4.875 C-14.08243806 1.96169541 -13.00925518 0.40357289 -10.5 -1.5 C-6.63662629 -2.60382106 -3.54500425 -1.72459666 0 0 Z " fill="#5048E4" transform="translate(106.3125,122.125)"/>
</svg>
