<svg width="90" height="30" viewBox="0 0 90 30" fill="none" xmlns="http://www.w3.org/2000/svg">
<path d="M9.375 28.125C10.4105 28.125 11.25 27.2855 11.25 26.25C11.25 25.2145 10.4105 24.375 9.375 24.375C8.33947 24.375 7.5 25.2145 7.5 26.25C7.5 27.2855 8.33947 28.125 9.375 28.125Z" fill="#F9FAFB"/>
<path d="M22.5 28.125C23.5355 28.125 24.375 27.2855 24.375 26.25C24.375 25.2145 23.5355 24.375 22.5 24.375C21.4645 24.375 20.625 25.2145 20.625 26.25C20.625 27.2855 21.4645 28.125 22.5 28.125Z" fill="#F9FAFB"/>
<path d="M26.25 6.56245H5.45625L4.6875 2.62495C4.64367 2.41 4.52585 2.21723 4.35455 2.08019C4.18326 1.94315 3.96932 1.87052 3.75 1.87495H0V3.74995H2.98125L6.5625 21.7499C6.60633 21.9649 6.72415 22.1577 6.89545 22.2947C7.06674 22.4317 7.28068 22.5044 7.5 22.4999H24.375V20.6249H8.26875L7.5 16.8749H24.375C24.5917 16.8802 24.8036 16.8103 24.9745 16.6769C25.1454 16.5436 25.2649 16.3552 25.3125 16.1437L27.1875 7.7062C27.2189 7.5671 27.2182 7.42266 27.1854 7.28388C27.1525 7.14511 27.0885 7.01565 26.9981 6.90536C26.9077 6.79507 26.7933 6.70685 26.6637 6.64743C26.534 6.58801 26.3926 6.55894 26.25 6.56245ZM23.625 14.9999H7.14375L5.83125 8.43745H25.0781L23.625 14.9999Z" fill="#F9FAFB"/>
<path d="M48.2138 21.9545V7.40909H49.1456V21.9545H48.2138ZM50.9013 12.0625C50.8482 11.5663 50.6248 11.1799 50.2308 10.9034C49.8407 10.6269 49.3331 10.4886 48.7081 10.4886C48.2687 10.4886 47.8918 10.5549 47.5774 10.6875C47.263 10.8201 47.0225 11 46.8558 11.2273C46.6892 11.4545 46.6039 11.714 46.6001 12.0057C46.6001 12.2481 46.6551 12.4583 46.7649 12.6364C46.8786 12.8144 47.032 12.9659 47.2251 13.0909C47.4183 13.2121 47.6323 13.3144 47.8672 13.3977C48.102 13.4811 48.3388 13.5511 48.5774 13.608L49.6683 13.8807C50.1077 13.983 50.5301 14.1212 50.9354 14.2955C51.3445 14.4697 51.71 14.6894 52.032 14.9545C52.3577 15.2197 52.6153 15.5398 52.8047 15.9148C52.9941 16.2898 53.0888 16.7292 53.0888 17.233C53.0888 17.9148 52.9145 18.5152 52.5661 19.0341C52.2176 19.5492 51.7138 19.9527 51.0547 20.2443C50.3994 20.5322 49.6058 20.6761 48.674 20.6761C47.7687 20.6761 46.9827 20.536 46.3161 20.2557C45.6532 19.9754 45.1342 19.5663 44.7592 19.0284C44.388 18.4905 44.1873 17.8352 44.157 17.0625H46.2308C46.2611 17.4678 46.3861 17.8049 46.6058 18.0739C46.8255 18.3428 47.1115 18.5436 47.4638 18.6761C47.8198 18.8087 48.2176 18.875 48.657 18.875C49.1153 18.875 49.5168 18.8068 49.8615 18.6705C50.21 18.5303 50.4827 18.3371 50.6797 18.0909C50.8767 17.8409 50.977 17.5492 50.9808 17.2159C50.977 16.9129 50.888 16.6629 50.7138 16.4659C50.5395 16.2652 50.2952 16.0985 49.9808 15.9659C49.6702 15.8295 49.3066 15.7083 48.8899 15.6023L47.5661 15.2614C46.6077 15.0152 45.8501 14.642 45.2933 14.142C44.7403 13.6383 44.4638 12.9697 44.4638 12.1364C44.4638 11.4508 44.6494 10.8504 45.0206 10.3352C45.3956 9.82008 45.9051 9.42045 46.549 9.13636C47.1929 8.84848 47.9221 8.70455 48.7365 8.70455C49.5623 8.70455 50.2857 8.84848 50.907 9.13636C51.532 9.42045 52.0225 9.81629 52.3786 10.3239C52.7346 10.8277 52.9183 11.4072 52.9297 12.0625H50.9013ZM59.1555 20.7216C58.2199 20.7216 57.4169 20.4848 56.7464 20.0114C56.0798 19.5341 55.5665 18.8466 55.2067 17.9489C54.8506 17.0473 54.6726 15.9621 54.6726 14.6932C54.6764 13.4242 54.8563 12.3447 55.2124 11.4545C55.5722 10.5606 56.0855 9.87879 56.7521 9.40909C57.4226 8.93939 58.2237 8.70455 59.1555 8.70455C60.0874 8.70455 60.8885 8.93939 61.5589 9.40909C62.2294 9.87879 62.7427 10.5606 63.0987 11.4545C63.4586 12.3485 63.6385 13.428 63.6385 14.6932C63.6385 15.9659 63.4586 17.053 63.0987 17.9545C62.7427 18.8523 62.2294 19.5379 61.5589 20.0114C60.8923 20.4848 60.0911 20.7216 59.1555 20.7216ZM59.1555 18.9432C59.8828 18.9432 60.4567 18.5852 60.8771 17.8693C61.3014 17.1496 61.5135 16.0909 61.5135 14.6932C61.5135 13.7689 61.4169 12.9924 61.2237 12.3636C61.0305 11.7348 60.7578 11.2614 60.4055 10.9432C60.0533 10.6212 59.6366 10.4602 59.1555 10.4602C58.4321 10.4602 57.8601 10.8201 57.4396 11.5398C57.0192 12.2557 56.8071 13.3068 56.8033 14.6932C56.7995 15.6212 56.8923 16.4015 57.0817 17.0341C57.2749 17.6667 57.5476 18.1439 57.8999 18.4659C58.2521 18.7841 58.6707 18.9432 59.1555 18.9432ZM66.3629 20.625C66.0182 20.625 65.7228 20.5038 65.4766 20.2614C65.2304 20.0189 65.1091 19.7235 65.1129 19.375C65.1091 19.0341 65.2304 18.7424 65.4766 18.5C65.7228 18.2576 66.0182 18.1364 66.3629 18.1364C66.6963 18.1364 66.986 18.2576 67.2322 18.5C67.4822 18.7424 67.6091 19.0341 67.6129 19.375C67.6091 19.6061 67.5485 19.8163 67.4311 20.0057C67.3175 20.1951 67.166 20.3466 66.9766 20.4602C66.791 20.5701 66.5864 20.625 66.3629 20.625ZM73.5618 20.7216C72.6262 20.7216 71.8232 20.4848 71.1527 20.0114C70.486 19.5341 69.9728 18.8466 69.6129 17.9489C69.2569 17.0473 69.0788 15.9621 69.0788 14.6932C69.0826 13.4242 69.2625 12.3447 69.6186 11.4545C69.9785 10.5606 70.4917 9.87879 71.1584 9.40909C71.8288 8.93939 72.63 8.70455 73.5618 8.70455C74.4936 8.70455 75.2947 8.93939 75.9652 9.40909C76.6357 9.87879 77.1489 10.5606 77.505 11.4545C77.8648 12.3485 78.0447 13.428 78.0447 14.6932C78.0447 15.9659 77.8648 17.053 77.505 17.9545C77.1489 18.8523 76.6357 19.5379 75.9652 20.0114C75.2985 20.4848 74.4974 20.7216 73.5618 20.7216ZM73.5618 18.9432C74.2891 18.9432 74.8629 18.5852 75.2834 17.8693C75.7076 17.1496 75.9197 16.0909 75.9197 14.6932C75.9197 13.7689 75.8232 12.9924 75.63 12.3636C75.4368 11.7348 75.1641 11.2614 74.8118 10.9432C74.4595 10.6212 74.0429 10.4602 73.5618 10.4602C72.8383 10.4602 72.2663 10.8201 71.8459 11.5398C71.4254 12.2557 71.2133 13.3068 71.2095 14.6932C71.2057 15.6212 71.2985 16.4015 71.4879 17.0341C71.6811 17.6667 71.9538 18.1439 72.3061 18.4659C72.6584 18.7841 73.0769 18.9432 73.5618 18.9432ZM84.2337 20.7216C83.2981 20.7216 82.495 20.4848 81.8246 20.0114C81.1579 19.5341 80.6446 18.8466 80.2848 17.9489C79.9287 17.0473 79.7507 15.9621 79.7507 14.6932C79.7545 13.4242 79.9344 12.3447 80.2905 11.4545C80.6503 10.5606 81.1636 9.87879 81.8303 9.40909C82.5007 8.93939 83.3018 8.70455 84.2337 8.70455C85.1655 8.70455 85.9666 8.93939 86.6371 9.40909C87.3075 9.87879 87.8208 10.5606 88.1768 11.4545C88.5367 12.3485 88.7166 13.428 88.7166 14.6932C88.7166 15.9659 88.5367 17.053 88.1768 17.9545C87.8208 18.8523 87.3075 19.5379 86.6371 20.0114C85.9704 20.4848 85.1693 20.7216 84.2337 20.7216ZM84.2337 18.9432C84.9609 18.9432 85.5348 18.5852 85.9553 17.8693C86.3795 17.1496 86.5916 16.0909 86.5916 14.6932C86.5916 13.7689 86.495 12.9924 86.3018 12.3636C86.1087 11.7348 85.8359 11.2614 85.4837 10.9432C85.1314 10.6212 84.7147 10.4602 84.2337 10.4602C83.5102 10.4602 82.9382 10.8201 82.5178 11.5398C82.0973 12.2557 81.8852 13.3068 81.8814 14.6932C81.8776 15.6212 81.9704 16.4015 82.1598 17.0341C82.353 17.6667 82.6257 18.1439 82.978 18.4659C83.3303 18.7841 83.7488 18.9432 84.2337 18.9432Z" fill="white"/>
</svg>
