<svg width="96" height="30" viewBox="0 0 96 30" fill="none" xmlns="http://www.w3.org/2000/svg">
<path d="M20.625 28.125H18.75V23.4375C18.7485 22.1948 18.2542 21.0033 17.3754 20.1246C16.4967 19.2458 15.3052 18.7515 14.0625 18.75H8.4375C7.19475 18.7515 6.00334 19.2458 5.12458 20.1246C4.24583 21.0033 3.75149 22.1948 3.75 23.4375V28.125H1.875V23.4375C1.87699 21.6976 2.56903 20.0296 3.7993 18.7993C5.02958 17.569 6.69763 16.877 8.4375 16.875H14.0625C15.8024 16.877 17.4704 17.569 18.7007 18.7993C19.931 20.0296 20.623 21.6976 20.625 23.4375V28.125Z" fill="white"/>
<path d="M11.25 3.75C12.1771 3.75 13.0834 4.02492 13.8542 4.53999C14.6251 5.05506 15.2259 5.78714 15.5807 6.64367C15.9355 7.5002 16.0283 8.4427 15.8474 9.35199C15.6666 10.2613 15.2201 11.0965 14.5646 11.7521C13.909 12.4076 13.0738 12.8541 12.1645 13.0349C11.2552 13.2158 10.3127 13.123 9.45618 12.7682C8.59965 12.4134 7.86756 11.8126 7.35249 11.0417C6.83742 10.2709 6.5625 9.3646 6.5625 8.4375C6.5625 7.1943 7.05636 6.00201 7.93544 5.12294C8.81452 4.24386 10.0068 3.75 11.25 3.75ZM11.25 1.875C9.95206 1.875 8.68327 2.25988 7.60407 2.98098C6.52488 3.70208 5.68374 4.727 5.18704 5.92614C4.69034 7.12528 4.56038 8.44478 4.8136 9.71778C5.06682 10.9908 5.69183 12.1601 6.60961 13.0779C7.5274 13.9957 8.69672 14.6207 9.96972 14.8739C11.2427 15.1271 12.5622 14.9972 13.7614 14.5005C14.9605 14.0038 15.9854 13.1626 16.7065 12.0834C17.4276 11.0042 17.8125 9.73544 17.8125 8.4375C17.8125 6.69702 17.1211 5.02782 15.8904 3.79711C14.6597 2.5664 12.9905 1.875 11.25 1.875Z" fill="white"/>
<path d="M50.7607 12.0625C50.7076 11.5663 50.4841 11.1799 50.0902 10.9034C49.7 10.6269 49.1925 10.4886 48.5675 10.4886C48.1281 10.4886 47.7512 10.5549 47.4368 10.6875C47.1224 10.8201 46.8819 11 46.7152 11.2273C46.5485 11.4545 46.4633 11.714 46.4595 12.0057C46.4595 12.2481 46.5144 12.4583 46.6243 12.6364C46.7379 12.8144 46.8913 12.9659 47.0845 13.0909C47.2777 13.2121 47.4917 13.3144 47.7266 13.3977C47.9614 13.4811 48.1982 13.5511 48.4368 13.608L49.5277 13.8807C49.9671 13.983 50.3894 14.1212 50.7947 14.2955C51.2038 14.4697 51.5694 14.6894 51.8913 14.9545C52.2171 15.2197 52.4747 15.5398 52.6641 15.9148C52.8535 16.2898 52.9482 16.7292 52.9482 17.233C52.9482 17.9148 52.7739 18.5152 52.4254 19.0341C52.0769 19.5492 51.5732 19.9527 50.9141 20.2443C50.2588 20.5322 49.4652 20.6761 48.5334 20.6761C47.6281 20.6761 46.8421 20.536 46.1754 20.2557C45.5125 19.9754 44.9936 19.5663 44.6186 19.0284C44.2474 18.4905 44.0466 17.8352 44.0163 17.0625H46.0902C46.1205 17.4678 46.2455 17.8049 46.4652 18.0739C46.6849 18.3428 46.9709 18.5436 47.3232 18.6761C47.6792 18.8087 48.0769 18.875 48.5163 18.875C48.9747 18.875 49.3762 18.8068 49.7209 18.6705C50.0694 18.5303 50.3421 18.3371 50.5391 18.0909C50.736 17.8409 50.8364 17.5492 50.8402 17.2159C50.8364 16.9129 50.7474 16.6629 50.5732 16.4659C50.3989 16.2652 50.1546 16.0985 49.8402 15.9659C49.5296 15.8295 49.166 15.7083 48.7493 15.6023L47.4254 15.2614C46.4671 15.0152 45.7095 14.642 45.1527 14.142C44.5997 13.6383 44.3232 12.9697 44.3232 12.1364C44.3232 11.4508 44.5088 10.8504 44.88 10.3352C45.255 9.82008 45.7644 9.42045 46.4084 9.13636C47.0523 8.84848 47.7815 8.70455 48.5959 8.70455C49.4216 8.70455 50.1451 8.84848 50.7663 9.13636C51.3913 9.42045 51.8819 9.81629 52.2379 10.3239C52.594 10.8277 52.7777 11.4072 52.7891 12.0625H50.7607ZM54.7365 20.5V11.7727H56.7933V20.5H54.7365ZM55.7706 10.5341C55.4448 10.5341 55.1645 10.4261 54.9297 10.2102C54.6948 9.99053 54.5774 9.72727 54.5774 9.42045C54.5774 9.10985 54.6948 8.84659 54.9297 8.63068C55.1645 8.41098 55.4448 8.30114 55.7706 8.30114C56.1001 8.30114 56.3804 8.41098 56.6115 8.63068C56.8464 8.84659 56.9638 9.10985 56.9638 9.42045C56.9638 9.72727 56.8464 9.99053 56.6115 10.2102C56.3804 10.4261 56.1001 10.5341 55.7706 10.5341ZM62.7038 23.9545C61.9652 23.9545 61.3307 23.8542 60.8004 23.6534C60.2701 23.4564 59.844 23.1913 59.522 22.858C59.2 22.5246 58.9766 22.1553 58.8516 21.75L60.7038 21.3011C60.7872 21.4716 60.9084 21.6402 61.0675 21.8068C61.2266 21.9773 61.4406 22.1174 61.7095 22.2273C61.9822 22.3409 62.325 22.3977 62.7379 22.3977C63.3213 22.3977 63.8042 22.2557 64.1868 21.9716C64.5694 21.6913 64.7607 21.2292 64.7607 20.5852V18.9318H64.6584C64.5523 19.1439 64.397 19.3617 64.1925 19.5852C63.9917 19.8087 63.7247 19.9962 63.3913 20.1477C63.0618 20.2992 62.647 20.375 62.147 20.375C61.4766 20.375 60.8686 20.2178 60.3232 19.9034C59.7815 19.5852 59.3497 19.1117 59.0277 18.483C58.7095 17.8504 58.5504 17.0587 58.5504 16.108C58.5504 15.1496 58.7095 14.3409 59.0277 13.6818C59.3497 13.0189 59.7834 12.517 60.3288 12.1761C60.8743 11.8314 61.4822 11.6591 62.1527 11.6591C62.6641 11.6591 63.0845 11.7462 63.4141 11.9205C63.7474 12.0909 64.0125 12.2973 64.2095 12.5398C64.4065 12.7784 64.5561 13.0038 64.6584 13.2159H64.772V11.7727H66.8004V20.642C66.8004 21.3883 66.6224 22.0057 66.2663 22.4943C65.9103 22.983 65.4235 23.3485 64.8061 23.5909C64.1887 23.8333 63.4879 23.9545 62.7038 23.9545ZM62.7209 18.7614C63.1565 18.7614 63.5277 18.6553 63.8345 18.4432C64.1413 18.2311 64.3743 17.9261 64.5334 17.5284C64.6925 17.1307 64.772 16.6534 64.772 16.0966C64.772 15.5473 64.6925 15.0663 64.5334 14.6534C64.3781 14.2405 64.147 13.9205 63.8402 13.6932C63.5372 13.4621 63.1641 13.3466 62.7209 13.3466C62.2625 13.3466 61.88 13.4659 61.5732 13.7045C61.2663 13.9432 61.0353 14.2708 60.88 14.6875C60.7247 15.1004 60.647 15.5701 60.647 16.0966C60.647 16.6307 60.7247 17.0985 60.88 17.5C61.0391 17.8977 61.272 18.2083 61.5788 18.4318C61.8894 18.6515 62.2701 18.7614 62.7209 18.7614ZM70.9652 15.3864V20.5H68.9084V11.7727H70.8743V13.2557H70.9766C71.1773 12.767 71.4974 12.3788 71.9368 12.0909C72.38 11.803 72.9273 11.6591 73.5788 11.6591C74.1811 11.6591 74.7057 11.7879 75.1527 12.0455C75.6035 12.303 75.9519 12.6761 76.1982 13.1648C76.4482 13.6534 76.5713 14.2462 76.5675 14.9432V20.5H74.5107V15.2614C74.5107 14.678 74.3591 14.2216 74.0561 13.892C73.7569 13.5625 73.3421 13.3977 72.8118 13.3977C72.4519 13.3977 72.1319 13.4773 71.8516 13.6364C71.575 13.7917 71.3572 14.017 71.1982 14.3125C71.0429 14.608 70.9652 14.9659 70.9652 15.3864ZM84.826 8.86364V20.5H82.718V8.86364H84.826ZM89.0746 15.3864V20.5H87.0178V11.7727H88.9837V13.2557H89.0859C89.2867 12.767 89.6068 12.3788 90.0462 12.0909C90.4893 11.803 91.0367 11.6591 91.6882 11.6591C92.2905 11.6591 92.8151 11.7879 93.2621 12.0455C93.7128 12.303 94.0613 12.6761 94.3075 13.1648C94.5575 13.6534 94.6806 14.2462 94.6768 14.9432V20.5H92.62V15.2614C92.62 14.678 92.4685 14.2216 92.1655 13.892C91.8662 13.5625 91.4515 13.3977 90.9212 13.3977C90.5613 13.3977 90.2412 13.4773 89.9609 13.6364C89.6844 13.7917 89.4666 14.017 89.3075 14.3125C89.1522 14.608 89.0746 14.9659 89.0746 15.3864Z" fill="white"/>
</svg>
